<svg width="121" height="16" viewBox="0 0 121 16" fill="none" xmlns="http://www.w3.org/2000/svg">
<path d="M7.32 15.36C6.02667 15.36 4.85333 15.1 3.8 14.58C2.76 14.0467 1.93333 13.26 1.32 12.22C0.706667 11.18 0.4 9.90667 0.4 8.4C0.4 7.25333 0.586667 6.24667 0.96 5.38C1.33333 4.51333 1.84 3.78667 2.48 3.2C3.13333 2.61333 3.88 2.17333 4.72 1.88C5.57333 1.58667 6.47333 1.44 7.42 1.44C8.18 1.44 8.88 1.52667 9.52 1.7C10.16 1.87333 10.76 2.11333 11.32 2.42L11.4 4.88H11.2L10.2 3.28C10.0667 3.02667 9.92 2.8 9.76 2.6C9.6 2.38667 9.4 2.22667 9.16 2.12C8.96 2.02667 8.76 1.96 8.56 1.92C8.37333 1.86667 8.13333 1.84 7.84 1.84C7.06667 1.84 6.36 2.04667 5.72 2.46C5.09333 2.87333 4.58667 3.56 4.2 4.52C3.82667 5.46667 3.64 6.76667 3.64 8.42C3.64 10.06 3.82 11.36 4.18 12.32C4.54 13.2667 5.02667 13.9467 5.64 14.36C6.26667 14.76 6.96667 14.96 7.74 14.96C8.16667 14.96 8.50667 14.9333 8.76 14.88C9.01333 14.8133 9.26667 14.72 9.52 14.6C9.77333 14.4933 9.96667 14.34 10.1 14.14C10.2333 13.9267 10.3533 13.7 10.46 13.46L11.34 11.5H11.54L11.48 14.36C10.92 14.6533 10.2933 14.8933 9.6 15.08C8.90667 15.2667 8.14667 15.36 7.32 15.36ZM12.5108 15V14.8L12.7508 14.72C13.2308 14.56 13.4708 14.2267 13.4708 13.72V3.04C13.4708 2.76 13.4241 2.55333 13.3308 2.42C13.2374 2.28667 13.0574 2.18667 12.7908 2.12L12.4908 2.04V1.84L16.0108 0.979999L16.3308 1.16L16.2508 3.98V6.48C16.7174 6.09333 17.2174 5.76667 17.7508 5.5C18.2974 5.22 18.8974 5.08 19.5508 5.08C20.4174 5.08 21.1041 5.32667 21.6108 5.82C22.1308 6.31333 22.3908 7.07333 22.3908 8.1V13.74C22.3908 14.0067 22.4441 14.22 22.5508 14.38C22.6574 14.54 22.8441 14.66 23.1108 14.74L23.2708 14.8V15H18.5908V14.8L18.8308 14.74C19.3108 14.58 19.5508 14.24 19.5508 13.72V7.44C19.5508 6.90667 19.4574 6.54 19.2708 6.34C19.0974 6.14 18.7841 6.04 18.3308 6.04C18.0374 6.04 17.7174 6.1 17.3708 6.22C17.0241 6.32667 16.6708 6.52 16.3108 6.8V13.76C16.3108 14.28 16.5508 14.6133 17.0308 14.76L17.1908 14.8V15H12.5108ZM27.5747 15.3C27.0547 15.3 26.5747 15.2 26.1347 15C25.708 14.8 25.368 14.48 25.1147 14.04C24.8747 13.5867 24.7614 12.9933 24.7747 12.26L24.8347 7.12C24.8347 6.81333 24.7814 6.59333 24.6747 6.46C24.568 6.32667 24.4014 6.23333 24.1747 6.18L23.9347 6.1V5.9L27.5147 5.2L27.7147 5.4L27.6147 8.24V13.06C27.6147 13.4867 27.7347 13.8 27.9747 14C28.228 14.2 28.5414 14.3 28.9147 14.3C29.288 14.3 29.6214 14.2467 29.9147 14.14C30.208 14.0333 30.5014 13.8733 30.7947 13.66L30.8747 7.14C30.8747 6.83333 30.828 6.62 30.7347 6.5C30.6414 6.36667 30.468 6.27333 30.2147 6.22L30.0147 6.16V5.96L33.5147 5.2L33.7147 5.4L33.6547 8.24V13.66C33.6547 13.9533 33.6947 14.18 33.7747 14.34C33.8547 14.5 34.028 14.6333 34.2947 14.74L34.4947 14.8V15L30.9947 15.2L30.8147 14.02C30.3747 14.38 29.8947 14.6867 29.3747 14.94C28.868 15.18 28.268 15.3 27.5747 15.3ZM39.1023 15.3C38.249 15.3 37.5823 15.0867 37.1023 14.66C36.6357 14.2333 36.4023 13.5533 36.4023 12.62V5.78H35.0223V5.58L35.5023 5.5C35.9157 5.40667 36.269 5.27333 36.5623 5.1C36.869 4.92667 37.169 4.69333 37.4623 4.4L39.1023 2.58H39.3023L39.2423 5.38H41.4823V5.78H39.2223V12.98C39.2223 13.4467 39.3223 13.8 39.5223 14.04C39.7357 14.28 40.0023 14.4 40.3223 14.4C40.6023 14.4 40.849 14.3333 41.0623 14.2C41.2757 14.0533 41.489 13.86 41.7023 13.62L41.9023 13.82C41.6357 14.2733 41.269 14.6333 40.8023 14.9C40.3357 15.1667 39.769 15.3 39.1023 15.3ZM44.9289 4.04C44.4756 4.04 44.0889 3.9 43.7689 3.62C43.4622 3.32667 43.3089 2.96 43.3089 2.52C43.3089 2.06667 43.4622 1.7 43.7689 1.42C44.0889 1.14 44.4756 0.999999 44.9289 0.999999C45.3822 0.999999 45.7622 1.14 46.0689 1.42C46.3756 1.7 46.5289 2.06667 46.5289 2.52C46.5289 2.96 46.3756 3.32667 46.0689 3.62C45.7622 3.9 45.3822 4.04 44.9289 4.04ZM42.5689 15V14.8L42.8489 14.72C43.1156 14.64 43.2956 14.52 43.3889 14.36C43.4956 14.2 43.5489 13.9867 43.5489 13.72V7.46C43.5489 7.18 43.4956 6.97333 43.3889 6.84C43.2956 6.69333 43.1156 6.59333 42.8489 6.54L42.5689 6.48V6.28L46.2289 5.1L46.4289 5.3L46.3689 8.14V13.74C46.3689 14.0067 46.4156 14.22 46.5089 14.38C46.6156 14.54 46.7956 14.66 47.0489 14.74L47.2489 14.8V15H42.5689ZM48.1744 15V14.8L48.4744 14.7C48.9277 14.5533 49.1544 14.2267 49.1544 13.72V3.02C49.1544 2.75333 49.101 2.55333 48.9944 2.42C48.8877 2.28667 48.701 2.18 48.4344 2.1L48.1744 2.04V1.84L51.8344 0.979999L52.0744 1.16L52.0144 3.96V13.72C52.0144 14.2533 52.2344 14.5867 52.6744 14.72L52.9544 14.8V15H48.1744ZM55.5944 15L52.0344 10L55.7344 6.58C55.9077 6.42 56.0077 6.25333 56.0344 6.08C56.0744 5.89333 55.961 5.76 55.6944 5.68L55.3544 5.58V5.38H58.3344V5.58L57.7344 5.74C57.441 5.83333 57.201 5.94667 57.0144 6.08C56.841 6.2 56.6277 6.37333 56.3744 6.6L54.1344 8.7L57.7144 13.68C57.9277 13.9733 58.1277 14.2 58.3144 14.36C58.501 14.52 58.741 14.6533 59.0344 14.76L59.1144 14.8V15H55.5944ZM62.6364 15.3C61.8631 15.3 61.2097 15.08 60.6764 14.64C60.1564 14.2 59.8964 13.5667 59.8964 12.74C59.8964 12.1133 60.2164 11.54 60.8564 11.02C61.4964 10.4867 62.5031 10.0867 63.8764 9.82C64.0897 9.78 64.3297 9.74 64.5964 9.7C64.8631 9.64667 65.1431 9.59333 65.4364 9.54V7.96C65.4364 7.05333 65.3231 6.42 65.0964 6.06C64.8831 5.68667 64.5431 5.5 64.0764 5.5C63.7564 5.5 63.5031 5.60667 63.3164 5.82C63.1297 6.02 63.0097 6.37333 62.9564 6.88L62.9164 7.1C62.8897 7.67333 62.7497 8.09333 62.4964 8.36C62.2431 8.62667 61.9297 8.76 61.5564 8.76C61.2097 8.76 60.9231 8.65333 60.6964 8.44C60.4697 8.22667 60.3564 7.94 60.3564 7.58C60.3564 7.03333 60.5431 6.57333 60.9164 6.2C61.3031 5.82667 61.8097 5.54667 62.4364 5.36C63.0631 5.17333 63.7431 5.08 64.4764 5.08C65.6631 5.08 66.5764 5.37333 67.2164 5.96C67.8697 6.53333 68.1964 7.47333 68.1964 8.78V13.2C68.1964 13.8 68.4764 14.1 69.0364 14.1H69.4764L69.6564 14.26C69.4031 14.58 69.1231 14.8267 68.8164 15C68.5231 15.1733 68.1031 15.26 67.5564 15.26C66.9697 15.26 66.5031 15.1267 66.1564 14.86C65.8231 14.58 65.6031 14.2133 65.4964 13.76C65.0964 14.1867 64.6831 14.5533 64.2564 14.86C63.8431 15.1533 63.3031 15.3 62.6364 15.3ZM63.8564 14.08C64.1231 14.08 64.3697 14.02 64.5964 13.9C64.8364 13.7667 65.1164 13.5667 65.4364 13.3V9.94C65.3031 9.96667 65.1697 9.99333 65.0364 10.02C64.9031 10.0467 64.7497 10.0733 64.5764 10.1C63.9631 10.26 63.4697 10.5333 63.0964 10.92C62.7364 11.2933 62.5564 11.8 62.5564 12.44C62.5564 12.9867 62.6831 13.4 62.9364 13.68C63.1897 13.9467 63.4964 14.08 63.8564 14.08ZM70.0289 15V14.8L70.3089 14.72C70.7756 14.5867 71.0089 14.26 71.0089 13.74V7.48C71.0089 7.18667 70.9622 6.97333 70.8689 6.84C70.7756 6.69333 70.5956 6.59333 70.3289 6.54L70.0289 6.46V6.26L73.4489 5.1L73.6489 5.3L73.8089 6.5C74.2756 6.08667 74.8022 5.74667 75.3889 5.48C75.9756 5.21333 76.5556 5.08 77.1289 5.08C78.0089 5.08 78.6822 5.32 79.1489 5.8C79.6289 6.28 79.8689 7.01333 79.8689 8V13.76C79.8689 14.28 80.1222 14.6067 80.6289 14.74L80.8089 14.8V15H76.0889V14.8L76.3489 14.72C76.8156 14.5733 77.0489 14.2467 77.0489 13.74V7.36C77.0489 6.50667 76.6222 6.08 75.7689 6.08C75.1822 6.08 74.5422 6.37333 73.8489 6.96V13.76C73.8489 14.28 74.0822 14.6067 74.5489 14.74L74.7289 14.8V15H70.0289ZM92.2469 15.36C91.4335 15.36 90.6469 15.2133 89.8869 14.92C89.1402 14.6267 88.4669 14.1933 87.8669 13.62C87.2802 13.0333 86.8135 12.3067 86.4669 11.44C86.1202 10.5733 85.9469 9.56 85.9469 8.4C85.9469 7.25333 86.1202 6.24667 86.4669 5.38C86.8135 4.51333 87.2869 3.79333 87.8869 3.22C88.4869 2.63333 89.1602 2.19333 89.9069 1.9C90.6669 1.59333 91.4469 1.44 92.2469 1.44C93.0602 1.44 93.8402 1.58667 94.5869 1.88C95.3469 2.16 96.0202 2.59333 96.6069 3.18C97.2069 3.75333 97.6802 4.48 98.0269 5.36C98.3735 6.22667 98.5469 7.24 98.5469 8.4C98.5469 9.53333 98.3735 10.54 98.0269 11.42C97.6802 12.2867 97.2069 13.0133 96.6069 13.6C96.0202 14.1733 95.3469 14.6133 94.5869 14.92C93.8402 15.2133 93.0602 15.36 92.2469 15.36ZM92.2469 14.94C92.9802 14.94 93.5735 14.7467 94.0269 14.36C94.4802 13.96 94.8069 13.2867 95.0069 12.34C95.2202 11.38 95.3269 10.0667 95.3269 8.4C95.3269 6.72 95.2202 5.40667 95.0069 4.46C94.8069 3.5 94.4802 2.82667 94.0269 2.44C93.5735 2.04 92.9802 1.84 92.2469 1.84C91.5269 1.84 90.9402 2.04 90.4869 2.44C90.0335 2.82667 89.7002 3.5 89.4869 4.46C89.2869 5.40667 89.1869 6.72 89.1869 8.4C89.1869 10.0667 89.2869 11.38 89.4869 12.34C89.7002 13.2867 90.0335 13.96 90.4869 14.36C90.9402 14.7467 91.5269 14.94 92.2469 14.94ZM102.805 15.3C102.152 15.3 101.565 15.22 101.045 15.06C100.525 14.9133 100.045 14.7267 99.6053 14.5L99.6253 12.12H99.8253L100.505 13.32C100.799 13.8533 101.119 14.2533 101.465 14.52C101.825 14.7733 102.279 14.9 102.825 14.9C103.465 14.9 103.979 14.76 104.365 14.48C104.765 14.1867 104.965 13.8 104.965 13.32C104.965 12.88 104.825 12.52 104.545 12.24C104.265 11.96 103.745 11.7067 102.985 11.48L102.145 11.22C101.332 10.98 100.692 10.6067 100.225 10.1C99.7586 9.59333 99.5253 8.97333 99.5253 8.24C99.5253 7.36 99.872 6.61333 100.565 6C101.259 5.38667 102.252 5.08 103.545 5.08C104.065 5.08 104.552 5.14 105.005 5.26C105.472 5.36667 105.919 5.53333 106.345 5.76L106.225 7.92H106.025L105.325 6.68C105.072 6.24 104.819 5.93333 104.565 5.76C104.325 5.57333 103.959 5.48 103.465 5.48C103.012 5.48 102.585 5.60667 102.185 5.86C101.785 6.11333 101.585 6.47333 101.585 6.94C101.585 7.39333 101.752 7.75333 102.085 8.02C102.432 8.28667 102.939 8.53333 103.605 8.76L104.505 9.02C105.465 9.31333 106.152 9.72 106.565 10.24C106.979 10.7467 107.185 11.36 107.185 12.08C107.185 13.0533 106.799 13.8333 106.025 14.42C105.265 15.0067 104.192 15.3 102.805 15.3ZM111.516 15.3C110.863 15.3 110.276 15.22 109.756 15.06C109.236 14.9133 108.756 14.7267 108.316 14.5L108.336 12.12H108.536L109.216 13.32C109.51 13.8533 109.83 14.2533 110.176 14.52C110.536 14.7733 110.99 14.9 111.536 14.9C112.176 14.9 112.69 14.76 113.076 14.48C113.476 14.1867 113.676 13.8 113.676 13.32C113.676 12.88 113.536 12.52 113.256 12.24C112.976 11.96 112.456 11.7067 111.696 11.48L110.856 11.22C110.043 10.98 109.403 10.6067 108.936 10.1C108.47 9.59333 108.236 8.97333 108.236 8.24C108.236 7.36 108.583 6.61333 109.276 6C109.97 5.38667 110.963 5.08 112.256 5.08C112.776 5.08 113.263 5.14 113.716 5.26C114.183 5.36667 114.63 5.53333 115.056 5.76L114.936 7.92H114.736L114.036 6.68C113.783 6.24 113.53 5.93333 113.276 5.76C113.036 5.57333 112.67 5.48 112.176 5.48C111.723 5.48 111.296 5.60667 110.896 5.86C110.496 6.11333 110.296 6.47333 110.296 6.94C110.296 7.39333 110.463 7.75333 110.796 8.02C111.143 8.28667 111.65 8.53333 112.316 8.76L113.216 9.02C114.176 9.31333 114.863 9.72 115.276 10.24C115.69 10.7467 115.896 11.36 115.896 12.08C115.896 13.0533 115.51 13.8333 114.736 14.42C113.976 15.0067 112.903 15.3 111.516 15.3ZM119.094 15.3C118.614 15.3 118.207 15.1333 117.874 14.8C117.54 14.4667 117.374 14.0667 117.374 13.6C117.374 13.1333 117.54 12.7267 117.874 12.38C118.207 12.0333 118.614 11.86 119.094 11.86C119.574 11.86 119.98 12.0333 120.314 12.38C120.647 12.7267 120.814 13.1333 120.814 13.6C120.814 14.0667 120.647 14.4667 120.314 14.8C119.98 15.1333 119.574 15.3 119.094 15.3Z" fill="white"/>
</svg>
